<svg xmlns="http://www.w3.org/2000/svg" width="100%" height="100%" viewBox="0 0 74 60" fill="none"><path fill="#D7F5FF" d="M26.104 14.808C.724 21.336-5.15 58.25 4.172 58.752c0 0 6.733-1.004 15.02.502 5.98 1.304 16.574.502 16.574.502 3.626 0 11.394-4.52 7.43-8.291 7.768 2.008 14.039-1.005 15.537-2.009 8.287-4.52 8.287-13.056-2.59-13.558 5.395-.652 9.841-1.506 14.502-6.528 6.594-8.48-.517-12.554-5.179-11.55C72.66 14.56 74.79 6.71 73.753 4.263c-2.59-8.536-13.314-2.154-16.097 1.107-8.764 7.932-24.998 8.434-31.552 9.439Z"></path><path fill="#fff" d="M25.2 14.744C.7 21.244-4.972 58 4.028 58.5c0 0 6.5-1 14.5.5 5.773 1.298 16 .5 16 .5 3.5 0 11-4.5 7.172-8.256 7.5 2 13.553-1 15-2 8-4.5 8-13-2.5-13.5 5.207-.65 9.5-1.5 14-6.5 6.365-8.444-.5-12.5-5-11.5 6.943-3.247 9.001-11.064 8-13.5-2.5-8.5-12.854-2.145-15.54 1.102-8.46 7.898-24.132 8.398-30.46 9.398Z"></path><path fill="#D7F5FF" d="M33 26.562c11.6-5.2 9.5-8.166 7-9 .8-1.6 3-1.666 4-1.5 5.2 3.2-1.5 7.667-5.5 9.5 6.4 4.4-2 8.167-7 9.5 6 4.4-1.833 6.834-6.5 7.5 2 8.4-10.5 6.834-17 5 12.4.4 13.167-3.833 12-6 13.2-1.2 9.5-5.166 6-7 16-4 11.333-7 7-8ZM45.5 31.062c17.6-2.8 14.667-6.5 11-8 2.8-2.4 4.833-1 5.5 0 2.8 5.2-9.833 7.5-16.5 8ZM22.5 52.562c15.6-2 12.5-4.166 9-5 6-.8 4.833 1.667 3.5 3-4 2.4-10 2.334-12.5 2Z"></path></svg>